# xmcd CD database file
#
# Track frame offsets:
#	150
#	24811
#	39402
#	56810
#	76677
#	100154
#	115638
#	132989
#	145435
#	157402
#	169684
#	188183
#
# Disc length: 2762 seconds
#
# Revision: 0
# Processed by: cddbd v1.5.2PL0 Copyright (c) Steve Scherf et al.
# Submitted via: CDex 1.77
#
DISCID=9a0ac80c
DTITLE=Sarah Jane Scouten - When The Bloom Falls From The Rose
DYEAR=2017
DGENRE=Country
TTITLE0=Acre Of Shells
TTITLE1=Bang Bang 
TTITLE2=Every Song I Sing 
TTITLE3=Poland 
TTITLE4=When The Bloom Falls From The Rose
TTITLE5=Britannia Mine 
TTITLE6=Where The Ghost River Flows 
TTITLE7=Paul 
TTITLE8=Coupe De Ville Rag
TTITLE9=Man In Love
TTITLE10=Rosehips for Scurvy 
TTITLE11=Sarah Jane Scouten - Crack In Your Windshield
EXTD=YEAR: 2017
EXTT0=
EXTT1=
EXTT2=
EXTT3=
EXTT4=
EXTT5=
EXTT6=
EXTT7=
EXTT8=
EXTT9=
EXTT10=
EXTT11=
PLAYORDER=
